<svg width="98" height="24" viewBox="0 0 98 24" fill="none" xmlns="http://www.w3.org/2000/svg">
<path d="M9.02908 6.1933H12.1718V18.0122H9.01769L8.88105 16.7831C8.5872 17.2379 8.1979 17.6177 7.74237 17.8941C7.24727 18.1862 6.68504 18.3332 6.11569 18.3195C5.29556 18.3262 4.48291 18.1572 3.72853 17.8231C3.00057 17.5001 2.33966 17.034 1.78221 16.4505C1.22478 15.8683 0.780236 15.1805 0.472729 14.4243C0.154751 13.6409 -0.00603849 12.7984 0.000177399 11.9483C-0.00591761 11.1374 0.145102 10.3336 0.444262 9.58449C0.735381 8.85944 1.16096 8.20086 1.69681 7.64619C2.23131 7.08991 2.86319 6.64464 3.55855 6.33428C4.27251 6.01662 5.04205 5.85566 5.81882 5.86153C6.47584 5.85134 7.12512 6.00967 7.70903 6.32246C8.2602 6.62133 8.75721 7.01723 9.17792 7.49254L9.02908 6.1933ZM6.20516 15.1875C6.71252 15.1974 7.21018 15.0425 7.62851 14.7443C8.03882 14.4494 8.36254 14.0424 8.56385 13.5683C8.77913 13.0598 8.85403 12.4992 8.7802 11.9491C8.72439 11.4197 8.54882 10.9115 8.26779 10.4658C7.99777 10.0314 7.63305 9.66908 7.20313 9.40805C6.78455 9.15102 6.30679 9.01626 5.82045 9.01803C5.31023 9.00894 4.80946 9.16148 4.3849 9.45533C3.9674 9.74585 3.63573 10.1509 3.42678 10.6254C3.20317 11.1357 3.11661 11.6992 3.17628 12.2564C3.24174 12.7844 3.42712 13.2888 3.71715 13.7279C3.99956 14.1635 4.37327 14.5271 4.81028 14.7916C5.23239 15.0516 5.71433 15.1884 6.20516 15.1875ZM18.389 3.90043V6.1933H21.4065V9.45533H18.389V18.0122H15.2463V9.45533H14.1076V6.1933H15.2463V3.90043C15.2388 3.21169 15.4163 2.5344 15.7587 1.94439C16.0955 1.36229 16.5672 0.876792 17.1308 0.532029C17.7037 0.177498 18.3597 -0.00650675 19.0267 0.000175746C19.5443 0.0017487 20.0561 0.11232 20.5314 0.325197C21.04 0.553391 21.4917 0.898998 21.8522 1.33572L19.5944 3.64041C19.547 3.5211 19.4629 3.42139 19.3553 3.35675C19.2552 3.29549 19.1412 3.26287 19.025 3.2622C18.8577 3.25925 18.696 3.32511 18.5753 3.4454C18.5148 3.50312 18.4669 3.57356 18.4348 3.65204C18.4027 3.73051 18.3871 3.81519 18.389 3.90043ZM30.7664 9.52793C30.5582 9.36856 30.3279 9.24303 30.0832 9.15563C29.8155 9.06214 29.5345 9.01619 29.252 9.01972C28.7827 9.0049 28.3214 9.14793 27.9368 9.42747C27.5712 9.70597 27.2874 10.0845 27.117 10.5207C26.926 11.0043 26.8312 11.5228 26.838 12.0454V18.0122H23.6725V6.1933H26.8152V7.41065C27.1732 6.95911 27.6121 6.58384 28.1076 6.30558C28.6319 6.01904 29.2175 5.87471 29.81 5.88601C30.0681 5.88601 30.3186 5.89192 30.5615 5.90374C30.8008 5.91493 31.0379 5.9566 31.2675 6.02784L30.7664 9.52793ZM37.2797 18.3195C36.2674 18.3299 35.2735 18.0387 34.4159 17.4804C33.5552 16.922 32.8459 16.145 32.3549 15.223C31.8397 14.2665 31.5748 13.1867 31.5863 12.091C31.5806 11.2629 31.7315 10.4417 32.0304 9.67398C32.3159 8.93939 32.7311 8.26658 33.2545 7.69008C33.7688 7.12309 34.386 6.6672 35.0706 6.34864C35.7651 6.02478 36.5184 5.85953 37.2797 5.86406C38.1401 5.85353 38.9901 6.0604 39.7563 6.46683C40.4982 6.86363 41.1473 7.4244 41.6579 8.10966C42.1798 8.80694 42.5594 9.60717 42.7738 10.4616C42.9985 11.353 43.0353 12.2842 42.882 13.1918H34.9795C35.0754 13.5314 35.2319 13.8492 35.4407 14.1289C35.648 14.4075 35.9118 14.6355 36.2134 14.7966C36.5444 14.9685 36.9095 15.0578 37.2797 15.0575C37.6622 15.0686 38.0403 14.9704 38.3728 14.7739C38.7082 14.5756 38.9993 14.3057 39.2268 13.982L42.4395 14.7502C41.9856 15.7865 41.2687 16.6751 40.3655 17.3208C39.4632 17.9814 38.3837 18.3307 37.2797 18.3195ZM34.8657 10.779H39.7051C39.61 10.3926 39.4395 10.0306 39.204 9.71534C38.9762 9.40667 38.6868 9.15268 38.3557 8.97075C38.0242 8.78919 37.6545 8.69579 37.2797 8.69892C36.9086 8.69674 36.5428 8.79014 36.215 8.97075C35.8863 9.151 35.5991 9.403 35.3732 9.70943C35.1379 10.0279 34.9655 10.3913 34.8657 10.779ZM49.8051 18.3195C48.7929 18.3299 47.799 18.0387 46.9414 17.4804C46.0807 16.922 45.3713 16.145 44.8804 15.223C44.3652 14.2665 44.1002 13.1867 44.1117 12.091C44.1061 11.2629 44.257 10.4417 44.5558 9.67398C44.8414 8.93939 45.2565 8.26658 45.7799 7.69008C46.2942 7.12309 46.9115 6.6672 47.5961 6.34864C48.2905 6.02478 49.0439 5.85953 49.8051 5.86406C50.6656 5.85353 51.5155 6.0604 52.2818 6.46683C53.0237 6.86363 53.6728 7.4244 54.1834 8.10966C54.7053 8.80637 55.0853 9.60601 55.3001 10.4599C55.5247 11.3514 55.5616 12.2826 55.4082 13.1901H47.505C47.6007 13.5303 47.7571 13.8487 47.9662 14.1289C48.1735 14.4075 48.4373 14.6355 48.7388 14.7966C49.0699 14.9685 49.435 15.0578 49.8051 15.0575C50.1877 15.0686 50.5658 14.9704 50.8983 14.7739C51.2337 14.5756 51.5248 14.3057 51.7523 13.982L54.965 14.7502C54.5111 15.7865 53.7941 16.6751 52.891 17.3208C51.9887 17.9814 50.9092 18.3307 49.8051 18.3195ZM47.3911 10.779H52.2305C52.1354 10.3926 51.9649 10.0306 51.7295 9.71534C51.5017 9.40667 51.2123 9.15268 50.8812 8.97075C50.5497 8.78919 50.18 8.69579 49.8051 8.69892C49.4341 8.69674 49.0682 8.79014 48.7405 8.97075C48.4115 9.1509 48.124 9.40291 47.8979 9.70943C47.6629 10.0279 47.4907 10.3914 47.3911 10.779ZM60.3835 23.9217H57.2407V6.1933H60.3835V7.46975C60.7437 7.00891 61.184 6.62233 61.6815 6.33006C62.2179 6.02525 62.8221 5.87212 63.4335 5.88601C64.2335 5.88026 65.0261 6.0452 65.7621 6.37058C66.4754 6.68548 67.1232 7.14105 67.6694 7.71203C68.2149 8.28166 68.6515 8.95339 68.9561 9.69171C69.2705 10.4534 69.43 11.2742 69.4246 12.1028C69.4297 12.935 69.2708 13.7595 68.9577 14.5257C68.6552 15.2686 68.2184 15.9446 67.671 16.5171C67.1248 17.0881 66.4771 17.5437 65.7637 17.8586C65.0272 18.1842 64.234 18.3491 63.4335 18.3432C62.8215 18.3573 62.2168 18.2023 61.6815 17.8941C61.1866 17.6 60.7469 17.2156 60.3835 16.7594V23.9217ZM63.3896 9.01803C62.8949 9.01155 62.4094 9.15757 61.9947 9.4376C61.5815 9.7167 61.2443 10.1013 61.0154 10.5545C60.7734 11.0315 60.6501 11.5637 60.6567 12.1028C60.6506 12.6437 60.7738 13.1777 61.0154 13.657C61.2422 14.1117 61.5798 14.4968 61.9947 14.7739C62.4107 15.0503 62.8956 15.1941 63.3896 15.1875C63.8904 15.192 64.382 15.0486 64.8072 14.7739C65.2344 14.5006 65.5874 14.1188 65.8328 13.6646C66.0902 13.1879 66.2218 12.6491 66.2143 12.1028C66.2193 11.5636 66.0898 11.0323 65.8385 10.5604C65.5972 10.1016 65.2462 9.715 64.8194 9.4376C64.3915 9.15808 63.8951 9.01241 63.3896 9.01803ZM71.087 6.1933H74.2298V18.0122H71.087V6.1933ZM72.6698 4.59774C72.4591 4.60232 72.2497 4.56282 72.0541 4.4816C71.8585 4.40037 71.6806 4.27909 71.5311 4.12499C71.3792 3.97432 71.2593 3.79246 71.1789 3.591C71.0985 3.38954 71.0595 3.17291 71.0643 2.95491C71.0595 2.73692 71.0985 2.52028 71.1789 2.31882C71.2593 2.11737 71.3792 1.9355 71.5311 1.78484C71.6806 1.63073 71.8585 1.50945 72.0541 1.42823C72.2497 1.347 72.4591 1.3075 72.6698 1.31208C72.8796 1.30716 73.0883 1.34653 73.283 1.42779C73.4778 1.50906 73.6546 1.63052 73.8028 1.78484C73.9531 1.93638 74.0717 2.11853 74.1511 2.31988C74.2304 2.52123 74.2689 2.73743 74.2639 2.95491C74.269 3.17233 74.2307 3.38849 74.1515 3.58984C74.0723 3.79118 73.9538 3.97337 73.8036 4.12499C73.6553 4.2794 73.4784 4.40093 73.2835 4.4822C73.0886 4.56347 72.8798 4.60278 72.6698 4.59774ZM88.8162 18.0122H85.1969L82.7829 13.6983L81.3921 15.4121V18.0122H78.2493V0.283831H81.3921V10.3417L84.7398 6.1933H88.839L84.935 11.0509L88.8162 18.0122Z" fill="#1E1E1E"/>
<path d="M94.7465 18.0125C96.5433 18.0125 97.9999 16.5006 97.9999 14.6356C97.9999 12.7707 96.5433 11.2588 94.7465 11.2588C92.9497 11.2588 91.4932 12.7707 91.4932 14.6356C91.4932 16.5006 92.9497 18.0125 94.7465 18.0125Z" fill="#0057FF"/>
</svg>
