<svg width="194" height="48" viewBox="0 0 194 48" fill="none" xmlns="http://www.w3.org/2000/svg">
<path d="M17.8739 12.2602H24.0952V35.6569H17.8513L17.5809 33.2236C16.9992 34.124 16.2285 34.8759 15.3267 35.4229C14.3466 36.0012 13.2336 36.2923 12.1066 36.2652C10.483 36.2783 8.87434 35.9438 7.38097 35.2825C5.93991 34.643 4.63158 33.7203 3.52804 32.5652C2.42456 31.4128 1.54455 30.0512 0.93581 28.5543C0.306345 27.0034 -0.0119537 25.3356 0.000351178 23.6527C-0.0117144 22.0475 0.287244 20.4562 0.879457 18.9734C1.45575 17.5381 2.29823 16.2343 3.35898 15.1363C4.41707 14.0351 5.66795 13.1537 7.04447 12.5393C8.45781 11.9104 9.9812 11.5918 11.5189 11.6034C12.8195 11.5833 14.1048 11.8967 15.2607 12.5159C16.3518 13.1075 17.3357 13.8912 18.1685 14.8322L17.8739 12.2602ZM12.2837 30.0651C13.2881 30.0847 14.2732 29.7779 15.1013 29.1877C15.9136 28.6038 16.5544 27.7981 16.9529 26.8597C17.3791 25.8531 17.5274 24.7434 17.3812 23.6544C17.2707 22.6063 16.9232 21.6002 16.3668 20.7181C15.8323 19.8581 15.1103 19.1408 14.2592 18.6241C13.4306 18.1153 12.4849 17.8485 11.5221 17.852C10.5121 17.834 9.52077 18.136 8.68031 18.7177C7.85383 19.2928 7.19726 20.0946 6.78363 21.034C6.34096 22.0441 6.16961 23.1597 6.28773 24.2627C6.41731 25.308 6.78429 26.3063 7.35843 27.1756C7.9175 28.0379 8.65729 28.7578 9.52238 29.2813C10.358 29.7959 11.312 30.0667 12.2837 30.0651ZM36.4027 7.72125V12.2602H42.3761V18.7177H36.4027V35.6569H30.1814V18.7177H27.9272V12.2602H30.1814V7.72125C30.1667 6.35783 30.5179 5.01707 31.1957 3.8491C31.8625 2.69677 32.7962 1.73569 33.9119 1.0532C35.0462 0.351374 36.3446 -0.0128807 37.665 0.000347905C38.6896 0.00346171 39.703 0.222348 40.6437 0.643757C41.6505 1.09549 42.5448 1.77965 43.2585 2.64417L38.7889 7.20652C38.695 6.97034 38.5286 6.77295 38.3155 6.645C38.1174 6.52373 37.8918 6.45914 37.6618 6.45783C37.3305 6.45199 37.0105 6.58235 36.7714 6.82048C36.6518 6.93474 36.5569 7.0742 36.4934 7.22954C36.4298 7.38488 36.3989 7.55252 36.4027 7.72125ZM60.905 18.8614C60.4928 18.5459 60.0367 18.2974 59.5525 18.1244C59.0225 17.9393 58.4662 17.8484 57.907 17.8553C56.978 17.826 56.0648 18.1092 55.3035 18.6625C54.5797 19.2139 54.0178 19.9631 53.6805 20.8267C53.3025 21.7839 53.1147 22.8105 53.1283 23.8449V35.6569H46.8618V12.2602H53.0832V14.6701C53.7919 13.7762 54.6607 13.0333 55.6416 12.4825C56.6795 11.9152 57.8387 11.6295 59.0115 11.6519C59.5224 11.6519 60.0184 11.6636 60.4992 11.687C60.973 11.7091 61.4424 11.7916 61.8968 11.9326L60.905 18.8614ZM73.7985 36.2652C71.7946 36.2857 69.8271 35.7092 68.1294 34.604C66.4256 33.4986 65.0214 31.9606 64.0495 30.1353C63.0297 28.2418 62.5051 26.1043 62.5279 23.9351C62.5167 22.2959 62.8154 20.6704 63.407 19.1505C63.9723 17.6963 64.7941 16.3644 65.8302 15.2232C66.8484 14.1008 68.0702 13.1983 69.4255 12.5677C70.8002 11.9266 72.2915 11.5995 73.7985 11.6084C75.5018 11.5876 77.1844 11.9971 78.7012 12.8017C80.1699 13.5872 81.4548 14.6973 82.4656 16.0538C83.4987 17.4341 84.2503 19.0183 84.6746 20.7097C85.1193 22.4744 85.1924 24.3178 84.8888 26.1144H69.2452C69.435 26.7865 69.7447 27.4158 70.1581 27.9694C70.5685 28.521 71.0907 28.9723 71.6877 29.2913C72.3431 29.6314 73.0658 29.8083 73.7985 29.8077C74.5558 29.8296 75.3042 29.6353 75.9625 29.2462C76.6265 28.8537 77.2027 28.3194 77.6531 27.6786L84.0129 29.1994C83.1143 31.2508 81.6951 33.0098 79.9072 34.2882C78.1211 35.5958 75.9841 36.2874 73.7985 36.2652ZM69.0198 21.3381H78.5998C78.4116 20.5731 78.074 19.8564 77.608 19.2324C77.1569 18.6214 76.5841 18.1186 75.9287 17.7584C75.2724 17.399 74.5405 17.2141 73.7985 17.2203C73.0639 17.216 72.3398 17.4009 71.6909 17.7584C71.0402 18.1152 70.4717 18.6141 70.0245 19.2207C69.5587 19.8511 69.2173 20.5706 69.0198 21.3381ZM98.5938 36.2652C96.5899 36.2857 94.6224 35.7092 92.9247 34.604C91.2209 33.4986 89.8167 31.9606 88.8447 30.1353C87.8249 28.2418 87.3004 26.1043 87.3232 23.9351C87.312 22.2959 87.6107 20.6704 88.2023 19.1505C88.7676 17.6963 89.5894 16.3644 90.6255 15.2232C91.6437 14.1008 92.8655 13.1983 94.2208 12.5677C95.5955 11.9266 97.0868 11.5995 98.5938 11.6084C100.297 11.5876 101.98 11.9971 103.497 12.8017C104.965 13.5872 106.25 14.6973 107.261 16.0538C108.294 17.433 109.046 19.016 109.472 20.7064C109.916 22.471 109.989 24.3144 109.686 26.111H94.0405C94.2299 26.7844 94.5396 27.4148 94.9534 27.9694C95.3638 28.521 95.886 28.9723 96.483 29.2913C97.1383 29.6314 97.8611 29.8083 98.5938 29.8077C99.351 29.8296 100.1 29.6353 100.758 29.2462C101.422 28.8537 101.998 28.3194 102.448 27.6786L108.808 29.1994C107.91 31.2508 106.49 33.0098 104.702 34.2882C102.916 35.5958 100.779 36.2874 98.5938 36.2652ZM93.8151 21.3381H103.395C103.207 20.5731 102.869 19.8564 102.403 19.2324C101.952 18.6214 101.379 18.1186 100.724 17.7584C100.068 17.399 99.3358 17.2141 98.5938 17.2203C97.8592 17.216 97.1351 17.4009 96.4862 17.7584C95.8349 18.115 95.2659 18.6139 94.8182 19.2207C94.353 19.8512 94.0121 20.5707 93.8151 21.3381ZM119.535 47.3552H113.313V12.2602H119.535V14.787C120.248 13.8748 121.119 13.1095 122.104 12.5309C123.166 11.9275 124.362 11.6244 125.572 11.6519C127.156 11.6405 128.725 11.967 130.182 12.6112C131.594 13.2345 132.876 14.1364 133.958 15.2667C135.038 16.3943 135.902 17.7241 136.505 19.1856C137.127 20.6934 137.443 22.3183 137.432 23.9585C137.442 25.606 137.128 27.2382 136.508 28.7549C135.909 30.2256 135.045 31.5638 133.961 32.6972C132.88 33.8275 131.597 34.7293 130.185 35.3527C128.727 35.9973 127.157 36.3238 125.572 36.312C124.361 36.34 123.164 36.0331 122.104 35.4229C121.125 34.8407 120.254 34.0798 119.535 33.1768V47.3552ZM125.485 17.852C124.506 17.8392 123.545 18.1282 122.724 18.6826C121.906 19.2351 121.239 19.9964 120.786 20.8936C120.307 21.8379 120.062 22.8914 120.076 23.9585C120.063 25.0293 120.307 26.0864 120.786 27.0352C121.234 27.9354 121.903 28.6977 122.724 29.2462C123.548 29.7935 124.508 30.0782 125.485 30.0651C126.477 30.074 127.45 29.79 128.292 29.2462C129.137 28.7053 129.836 27.9495 130.322 27.0502C130.832 26.1066 131.092 25.0401 131.077 23.9585C131.087 22.8912 130.831 21.8394 130.333 20.9053C129.856 19.9971 129.161 19.2317 128.316 18.6826C127.469 18.1293 126.486 17.8409 125.485 17.852ZM140.723 12.2602H146.945V35.6569H140.723V12.2602ZM143.856 9.10165C143.439 9.11071 143.025 9.03251 142.638 8.87173C142.25 8.71094 141.898 8.47085 141.602 8.16578C141.302 7.86752 141.064 7.50751 140.905 7.10871C140.746 6.7099 140.669 6.28106 140.678 5.84951C140.669 5.41797 140.746 4.98913 140.905 4.59032C141.064 4.19152 141.302 3.83151 141.602 3.53325C141.898 3.22818 142.25 2.98809 142.638 2.8273C143.025 2.66652 143.439 2.58832 143.856 2.59738C144.272 2.58764 144.685 2.66557 145.07 2.82644C145.456 2.98731 145.806 3.22777 146.099 3.53325C146.397 3.83323 146.632 4.19383 146.789 4.59242C146.946 4.991 147.022 5.41898 147.012 5.84951C147.022 6.27992 146.946 6.70783 146.79 7.10641C146.633 7.50499 146.398 7.86565 146.101 8.16578C145.807 8.47146 145.457 8.71204 145.071 8.87292C144.685 9.0338 144.272 9.11162 143.856 9.10165ZM175.82 35.6569H168.655L163.876 27.1171L161.123 30.5096V35.6569H154.902V0.561869H161.123V20.4724L167.75 12.2602H175.865L168.137 21.8762L175.82 35.6569Z" fill="white"/>
<path d="M187.559 35.6566C191.116 35.6566 194 32.6638 194 28.9719C194 25.28 191.116 22.2871 187.559 22.2871C184.003 22.2871 181.119 25.28 181.119 28.9719C181.119 32.6638 184.003 35.6566 187.559 35.6566Z" fill="#006AFF"/>
</svg>
